<svg width="24" height="24" viewBox="0 0 24 24" fill="none" xmlns="http://www.w3.org/2000/svg">
<path d="M20.25 8.99999C20.2513 7.60956 19.9012 6.24136 19.2321 5.02248C18.563 3.80361 17.5968 2.7736 16.4231 2.02815C15.2493 1.28271 13.9063 0.845996 12.5186 0.758596C11.1309 0.671195 9.74365 0.935938 8.48568 1.52823C7.22771 2.12052 6.13985 3.02115 5.32315 4.14645C4.50644 5.27175 3.9874 6.58521 3.81423 7.96481C3.64107 9.34441 3.81939 10.7454 4.33265 12.0376C4.8459 13.3299 5.67744 14.4714 6.75 15.3562V22.5C6.74924 22.628 6.78165 22.754 6.84409 22.8657C6.90652 22.9774 6.99685 23.0711 7.10625 23.1375C7.21477 23.2057 7.33897 23.245 7.46699 23.2515C7.595 23.2581 7.72257 23.2318 7.8375 23.175L12 21.0844L16.1625 23.175C16.2689 23.222 16.3837 23.2475 16.5 23.25C16.6989 23.25 16.8897 23.171 17.0303 23.0303C17.171 22.8897 17.25 22.6989 17.25 22.5V15.3562C18.1883 14.5839 18.9439 13.6134 19.4626 12.5144C19.9812 11.4154 20.2502 10.2152 20.25 8.99999ZM5.25 8.99999C5.25 7.66497 5.64588 6.35992 6.38758 5.24989C7.12928 4.13986 8.18348 3.27469 9.41689 2.7638C10.6503 2.25291 12.0075 2.11924 13.3169 2.37969C14.6262 2.64014 15.829 3.28301 16.773 4.22702C17.717 5.17102 18.3599 6.37376 18.6203 7.68313C18.8808 8.9925 18.7471 10.3497 18.2362 11.5831C17.7253 12.8165 16.8601 13.8707 15.7501 14.6124C14.6401 15.3541 13.335 15.75 12 15.75C10.2105 15.7475 8.4951 15.0356 7.22977 13.7702C5.96443 12.5049 5.25248 10.7894 5.25 8.99999ZM15.75 21.2906L12.3375 19.575C12.2322 19.5243 12.1169 19.498 12 19.498C11.8831 19.498 11.7678 19.5243 11.6625 19.575L8.25 21.2906V16.35C9.41143 16.9418 10.6965 17.2504 12 17.2504C13.3035 17.2504 14.5886 16.9418 15.75 16.35V21.2906ZM12 14.25C13.0384 14.25 14.0534 13.9421 14.9167 13.3652C15.7801 12.7883 16.453 11.9684 16.8504 11.0091C17.2477 10.0498 17.3517 8.99417 17.1491 7.97577C16.9466 6.95737 16.4465 6.0219 15.7123 5.28768C14.9781 4.55345 14.0426 4.05344 13.0242 3.85087C12.0058 3.64829 10.9502 3.75226 9.99091 4.14962C9.0316 4.54698 8.21166 5.21989 7.63478 6.08325C7.05791 6.9466 6.75 7.96164 6.75 8.99999C6.75 10.3924 7.30312 11.7277 8.28769 12.7123C9.27225 13.6969 10.6076 14.25 12 14.25ZM12 5.24999C12.7417 5.24999 13.4667 5.46992 14.0834 5.88198C14.7001 6.29403 15.1807 6.8797 15.4645 7.56493C15.7484 8.25015 15.8226 9.00415 15.6779 9.73158C15.5332 10.459 15.1761 11.1272 14.6516 11.6516C14.1272 12.1761 13.459 12.5332 12.7316 12.6779C12.0042 12.8226 11.2502 12.7484 10.5649 12.4645C9.87971 12.1807 9.29404 11.7001 8.88199 11.0834C8.46993 10.4667 8.25 9.74167 8.25 8.99999C8.25247 8.00619 8.64836 7.0538 9.35108 6.35107C10.0538 5.64835 11.0062 5.25246 12 5.24999Z" fill="#FF9900"/>
</svg>
